<svg xmlns="http://www.w3.org/2000/svg" width="32" height="32" viewBox="0 0 32 32" shape-rendering="crispEdges"><rect x="5" y="5" width="22" height="22" fill="#d9934a"/><path d="M9,5 L13,5 L11,1 Z" fill="#d9934a"/><path d="M19,5 L23,5 L21,1 Z" fill="#d9934a"/><path d="M11,5 L12.5,5 L11.8,3 Z" fill="#f4d0a7"/><path d="M20.5,5 L22,5 L21.2,3 Z" fill="#f4d0a7"/><rect x="8" y="15" width="10" height="4" fill="#f0c38b"/><rect x="12" y="12" width="2" height="2" fill="#5a3c2a"/><rect x="19" y="12" width="2" height="2" fill="#5a3c2a"/><rect x="16" y="18" width="2" height="2" fill="#5a3c2a"/><rect x="16" y="20" width="1" height="1" fill="#5a3c2a"/><rect x="9" y="19" width="4" height="1" fill="#5a3c2a"/><rect x="20" y="19" width="4" height="1" fill="#5a3c2a"/><rect x="0" y="0" width="32" height="2" fill="#5a3c2a"/><rect x="0" y="30" width="32" height="2" fill="#5a3c2a"/><rect x="30" y="0" width="2" height="32" fill="#5a3c2a"/></svg>
